<?xml version="1.0" encoding="UTF-8" standalone="no"?>
<svg width="130px" height="54px" viewBox="0 0 130 54" version="1.1" xmlns="http://www.w3.org/2000/svg" xmlns:xlink="http://www.w3.org/1999/xlink" xmlns:sketch="http://www.bohemiancoding.com/sketch/ns">
    <!-- Generator: Sketch 3.3 (11970) - http://www.bohemiancoding.com/sketch -->
    <title>New Marketing Icon</title>
    <desc>Created with Sketch.</desc>
    <defs></defs>
    <g id="Welcome" stroke="none" stroke-width="1" fill="none" fill-rule="evenodd" sketch:type="MSPage">
        <g id="Desktop-HD" sketch:type="MSArtboardGroup" transform="translate(-392.000000, -925.000000)" fill="#E44A2B">
            <g id="SERVICES" sketch:type="MSLayerGroup" transform="translate(-45.000000, 682.000000)">
                <g id="New-Marketing-Icon" transform="translate(437.500000, 243.554979)" sketch:type="MSShapeGroup">
                    <path d="M50.7787075,51.092 L46.0226531,50.92505 C45.1161905,50.8473167 44.2044218,50.7704667 43.3068027,50.6309 C40.7182993,50.2316333 38.2031973,49.5373333 35.8269388,48.5736167 C33.7628571,47.7353333 31.8270068,46.7548333 30.0759864,45.66215 L29.8434014,45.5058 L25.9168707,42.6111167 L30.7047619,42.9900667 C35.8640816,43.44675 40.4857143,42.4830333 44.6855102,40.0582833 C43.3651701,39.6599 42.1244218,39.0645333 40.9756463,38.2721833 C38.5852381,36.6238833 36.877551,34.4084833 35.8932653,31.6789833 C35.8048299,31.4360667 35.5695918,30.7815167 36.0135374,30.1517 L36.4229932,29.5695833 L36.802381,29.5536833 C35.5059184,28.5731833 34.3880952,27.34535 33.4630612,25.8737167 C32.1559864,23.7934667 31.4794558,21.4809 31.4555782,19.00315 L31.4502721,18.4325167 L31.8915646,17.7700167 C32.1612925,17.49795 32.5247619,17.3477833 32.9129932,17.3477833 L33.2410884,17.3477833 L33.7495918,17.5765667 C33.7734694,17.5907 33.8,17.60395 33.8238776,17.61455 C32.905034,16.2612833 32.252381,14.74725 31.8729932,13.0812833 C31.1106803,9.72991667 31.605034,6.45098333 33.3427891,3.3337 L34.2598639,1.68981667 L36.4521769,4.07393333 C36.8908163,4.57125 37.3285714,5.06768333 37.7963946,5.53761667 C40.1222449,7.86873333 42.7478912,9.83415 45.5972789,11.3693833 C47.2386395,12.2589 49.0002721,13.01945 50.842381,13.6377833 C52.6897959,14.2587667 54.5610884,14.7004333 56.4058503,14.9557167 C56.9002041,15.0219667 57.3945578,15.0749667 57.8942177,15.1262 C57.7845578,13.9381167 57.822585,12.8295333 57.9985714,11.7562833 C58.5336054,8.50385 60.0679592,5.77258333 62.5591837,3.63403333 C64.3128571,2.1253 66.3318367,1.1342 68.5612925,0.690766667 C68.9592517,0.610383333 69.3607483,0.552083333 69.7613605,0.491133333 L70.1973469,0.424 L72.4745578,0.4081 L72.6160544,0.43725 C75.759932,0.79765 78.4262585,2.02371667 80.6229932,4.10573333 C82.7136054,3.61813333 84.817483,2.80281667 86.782517,1.69246667 L88.1806803,1.0653 L89.2923129,2.5334 L89.1269388,3.2436 C88.6776871,4.558 88.0577551,5.75933333 87.2768707,6.84318333 C87.6376871,6.71245 87.9958503,6.57641667 88.3540136,6.44038333 L90.8567347,5.49786667 L90.8567347,7.95176667 L90.5569388,8.37488333 C88.8978912,10.7528167 87.0071429,12.7367833 84.8493197,14.3842 C84.8891156,16.3496167 84.7936054,18.1410167 84.5557143,19.8599833 C83.9402041,24.2934333 82.5614966,28.5334333 80.4523129,32.4616167 C77.8965306,37.2280833 74.49,41.2057333 70.3308844,44.2903333 C64.9867347,48.2556167 58.744966,50.509 51.7780272,50.9921833 L50.7787075,51.092 L50.7787075,51.092 Z M36.0029252,45.6815833 C36.2832653,45.8043667 36.5697959,45.9245 36.8580952,46.0419833 C39.0371429,46.9262 41.3470748,47.5613167 43.7259864,47.9296667 C44.562585,48.0604 45.4080272,48.1301833 46.252585,48.1999667 L47.870068,48.3731 L51.582585,48.2635667 C58.0259864,47.8174833 63.7813605,45.7434167 68.7001361,42.09525 C72.5338095,39.2535667 75.675034,35.5771333 78.0406803,31.1693 C79.995102,27.5273167 81.2756463,23.5964833 81.8442857,19.4863333 C82.0742177,17.8150667 82.16,16.0581167 82.1042857,14.11125 C82.0821769,13.41695 82.3634014,12.8295333 82.9196599,12.4134833 C83.822585,11.7430333 84.6759864,11.0089833 85.4719048,10.21575 C84.7396599,10.3862333 83.995034,10.52315 83.2344898,10.6300333 L82.9355782,10.6618333 C82.5473469,10.6803833 82.2254422,10.5805667 81.9760544,10.4083167 L80.3081633,9.24408333 L81.9813605,8.11606667 C83.0726531,7.4147 83.9835374,6.60468333 84.729932,5.67895 C83.429932,6.18421667 82.1255102,6.57111667 80.7910204,6.85643333 L80.3338095,6.90766667 C79.9809524,6.90766667 79.4609524,6.80608333 78.9842857,6.33085 C77.1554422,4.49616667 75.0064626,3.46531667 72.4055782,3.18265 L72.0739456,3.11816667 L70.1646259,3.1959 C69.8064626,3.2489 69.4482993,3.30278333 69.0954422,3.37168333 C67.3364626,3.72236667 65.7384354,4.50676667 64.3455782,5.70545 C62.3239456,7.43855 61.1318367,9.56473333 60.6985034,12.1997167 C60.5065986,13.3772 60.5251701,14.6244667 60.755102,15.9061833 C60.8753741,16.6481833 60.7630612,17.1048667 60.4526531,17.4643833 L60.0440816,17.9449167 L59.2578912,17.9970333 L58.3328571,17.91665 C57.5634694,17.8415667 56.7958503,17.7673667 56.0344218,17.6631333 C54.0180952,17.3875333 51.9787755,16.90435 49.9712925,16.2294833 C47.982381,15.5643333 46.0704082,14.73665 44.2955102,13.7755833 C41.2108844,12.1113833 38.3712245,9.98873333 35.8561224,7.46593333 C35.5297959,7.13998333 35.2167347,6.79813333 34.9072109,6.45628333 C34.1882313,8.41375 34.0697279,10.3977167 34.5402041,12.4744333 C35.1557143,15.1668333 36.5989796,17.2833 38.9566667,18.9528 L39.8710884,19.5985167 L38.9840816,21.3157167 L38.0395918,21.5003333 L37.3586395,21.45175 C36.3345578,21.3484 35.3343537,21.1319833 34.3668707,20.8033833 C34.6047619,22.0904 35.0778912,23.2970333 35.7836054,24.4206333 C37.3745578,26.9496167 39.5668707,28.5281333 42.4887755,29.24275 L42.8469388,29.3293167 L43.3121088,29.6950167 L45.0330612,31.3503833 L42.4401361,32.0809 C41.3682993,32.3282333 40.3229932,32.4510167 39.3121769,32.4510167 L39.2431973,32.4510167 C40.0426531,33.8811333 41.125102,35.0542 42.5312245,36.0232167 C44.1752381,37.15565 45.9846259,37.7669167 48.0619728,37.8897 L48.3829932,37.90825 L48.9206803,38.1352667 L50.7141497,39.1608167 L49.0727891,40.4107333 C45.1347619,43.4087667 40.7510204,45.1772 36.0029252,45.6815833 L36.0029252,45.6815833 Z" id="Fill-1"></path>
                    <path d="M95.190068,38.5212833 L88.1585714,38.5212833 C87.2538776,38.5212833 86.4880272,37.82875 86.4880272,36.9242167 C86.4880272,36.0196833 87.2538776,35.2547167 88.1585714,35.2547167 L95.7463265,35.2547167 L98.6001361,18.8432667 L90.9442857,18.8432667 C90.0387075,18.8432667 89.2719728,18.1463167 89.2719728,17.2462 C89.2719728,16.3416667 90.0387075,15.5767 90.9442857,15.5767 L99.1590476,15.5767 L101.106395,4.10308333 C101.246122,3.19766667 101.942109,2.57226667 102.848571,2.57226667 C104.030952,2.57226667 104.517347,3.61548333 104.379388,4.58803333 L102.498367,15.5767 L116.91068,15.5767 L118.858912,4.10308333 C118.998639,3.19766667 119.69551,2.57226667 120.600204,2.57226667 C121.783469,2.57226667 122.272517,3.61548333 122.132789,4.58803333 L120.251769,15.5767 L127.214286,15.5767 C128.11898,15.5767 128.88483,16.2701167 128.88483,17.17465 C128.88483,18.0783 128.11898,18.8432667 127.214286,18.8432667 L119.69551,18.8432667 L116.840816,35.2547167 L124.429456,35.2547167 C125.33415,35.2547167 126.099116,35.9481333 126.099116,36.8526667 C126.099116,37.7572 125.33415,38.5212833 124.429456,38.5212833 L116.283673,38.5212833 L114.264694,50.2749167 C114.126735,51.17945 113.42898,51.80485 112.524286,51.80485 C111.340136,51.80485 110.854626,50.76075 110.993469,49.7890833 L112.942585,38.5212833 L98.5329252,38.5212833 L96.5121769,50.2749167 C96.3733333,51.17945 95.6764626,51.80485 94.7735374,51.80485 C93.587619,51.80485 93.1012245,50.76075 93.2418367,49.7890833 L95.190068,38.5212833 L95.190068,38.5212833 Z M113.498844,35.2547167 L116.353537,18.8432667 L101.942109,18.8432667 L99.0891837,35.2547167 L113.498844,35.2547167 L113.498844,35.2547167 Z" id="Fill-2"></path>
                    <path d="M6.99612245,52.60515 C6.73258503,52.60515 5.92693878,52.60515 5.32911565,52.0027167 C4.72333333,51.39145 4.72863946,50.5673 4.73129252,50.2166167 C4.75693878,47.5198 4.7507483,44.8203333 4.74809524,42.1208667 L4.74278912,36.3173667 C4.74278912,33.7186 4.74013605,31.1171833 4.75428571,28.5122333 C4.56857143,28.5157667 4.38904762,28.5184167 4.20687075,28.5184167 L2.82020408,28.5087 L1.91904762,28.5237167 C1.61040816,28.5087 0.892312925,28.5210667 0.342244898,27.9663333 C-0.216666667,27.4018833 -0.208707483,26.6819667 -0.205170068,26.4434667 C-0.183945578,24.1088167 -0.185714286,21.77505 -0.202517007,19.4404 C-0.205170068,19.2133833 -0.214013605,18.5067167 0.329863946,17.9546333 C0.689795918,17.59335 1.17265306,17.4113833 1.77047619,17.4113833 L2.48061224,17.4166833 L4.12285714,17.40785 C4.34394558,17.40785 4.56591837,17.40785 4.7852381,17.4140333 C4.75959184,15.7683833 4.76489796,14.1978167 4.7985034,12.6281333 C4.85510204,10.0435 5.59884354,7.75566667 7.01027211,5.83265 C8.80108844,3.38493333 11.4868707,2.00781667 14.7757823,1.85941667 C16.25,1.79316667 17.7295238,1.78168333 19.2055102,1.78168333 L23.1435374,1.77373333 C24.3303401,1.77373333 25.0944218,2.55548333 25.0944218,3.71618333 C25.0855782,6.08528333 25.0802721,8.45703333 25.0944218,10.81995 C25.102381,11.4117833 24.9255102,11.9020333 24.5664626,12.2642 C24.2127211,12.6228333 23.7298639,12.8048 23.1373469,12.8048 L21.307619,12.7924333 L19.1241497,12.8048 C17.9231973,12.8048 17.6508163,13.3065333 17.6004082,14.1192 C17.5464626,14.9654333 17.5526531,15.8160833 17.5553061,16.6649667 C17.5579592,16.87785 17.5579592,17.0889667 17.5579592,17.2992 L20.0447619,17.3045 C20.9565306,17.3045 21.8709524,17.30185 22.7844898,17.2868333 C23.025034,17.2930167 23.935034,17.2841833 24.5045578,17.9210667 C25.0767347,18.5606 24.9847619,19.3653167 24.9564626,19.62855 C24.7008844,21.9720333 24.4904082,24.3155167 24.282585,26.6696 C24.1870748,27.878 23.3787755,28.6076333 22.1221088,28.6076333 C21.2713605,28.5943833 20.4798639,28.59085 19.6883673,28.59085 L17.6897279,28.5943833 L17.6870748,31.4678667 C17.6817687,37.7165667 17.6755782,43.9599667 17.7038776,50.2060167 C17.7065306,50.7492667 17.6419728,51.4479833 17.0972109,51.9974167 C16.4914286,52.60515 15.6751701,52.60515 15.3656463,52.60515 C12.4693878,52.55745 9.82870748,52.5495 7.09163265,52.60515 L6.99612245,52.60515 L6.99612245,52.60515 Z M6.99612245,49.7449167 L6.99612245,51.1697333 L7.03326531,49.7572833 C7.01911565,49.7546333 7.00761905,49.7475667 6.99612245,49.7449167 L6.99612245,49.7449167 Z M11.077415,49.69545 C12.3261224,49.69545 13.5757143,49.7069333 14.8217687,49.7263667 C14.8014286,43.54215 14.807619,37.5063333 14.8129252,31.4643333 L14.8155782,28.1650833 C14.8102721,27.3524167 14.8014286,26.7376167 15.309932,26.2252833 C15.8095918,25.72355 16.4383673,25.72355 16.7072109,25.72355 L17.1759184,27.1616167 L17.1759184,25.7262 L19.6883673,25.7200167 C20.2853061,25.7200167 20.8840136,25.7200167 21.4818367,25.72885 C21.6445578,23.8650167 21.8161224,22.0170833 22.0097959,20.1665 C21.3306122,20.1726833 20.6876871,20.1753333 20.0447619,20.1753333 L16.727551,20.16915 C16.410068,20.2301 15.702585,20.1726833 15.1755102,19.62855 C14.9340816,19.3785667 14.6528571,18.9333667 14.6758503,18.21875 C14.6855782,17.7196667 14.6838095,17.1976167 14.6811565,16.67645 C14.6785034,15.7657333 14.6758503,14.8506 14.7315646,13.9434167 C14.8863265,11.4700833 16.5648299,9.93396667 19.1126531,9.93396667 L21.307619,9.92248333 L22.2140816,9.92866667 C22.2087755,8.162 22.2114286,6.40505 22.2167347,4.64986667 L19.2055102,4.65251667 C17.7710884,4.65251667 16.3402041,4.66046667 14.9057823,4.72583333 C12.449932,4.83978333 10.6255102,5.75668333 9.32904762,7.52865 C8.27312925,8.97025 7.71510204,10.7051167 7.67265306,12.6899667 C7.6337415,14.45575 7.6337415,16.2188833 7.67530612,17.9767167 C7.68061224,18.32475 7.69564626,19.1179833 7.10047619,19.7213 C6.71843537,20.11085 6.19401361,20.30695 5.53959184,20.30695 C4.94176871,20.2848667 4.53231293,20.2786833 4.12285714,20.2786833 L2.67693878,20.2875167 C2.68843537,22.0806833 2.68843537,23.8614833 2.67340136,25.6414 C2.72469388,25.63875 2.77244898,25.63875 2.82020408,25.63875 L4.20687075,25.6475833 C4.58272109,25.6475833 4.95591837,25.6414 5.33176871,25.6246167 L5.35210884,25.6246167 C6.15687075,25.6246167 6.67687075,25.8233667 7.05802721,26.2085 C7.58598639,26.7429167 7.63904762,27.4222 7.6337415,27.8841833 C7.61428571,30.6878833 7.61428571,33.5030667 7.61693878,36.3138333 L7.6222449,42.1182167 C7.62489796,44.65515 7.63108844,47.1920833 7.6107483,49.7237167 C8.76748299,49.7042833 9.92068027,49.69545 11.077415,49.69545 L11.077415,49.69545 Z" id="Fill-3"></path>
                </g>
            </g>
        </g>
    </g>
</svg>