<?xml version="1.0" encoding="UTF-8" standalone="no"?>
<svg width="116px" height="53px" viewBox="0 0 116 53" version="1.1" xmlns="http://www.w3.org/2000/svg" xmlns:xlink="http://www.w3.org/1999/xlink" xmlns:sketch="http://www.bohemiancoding.com/sketch/ns">
    <!-- Generator: Sketch 3.3 (11970) - http://www.bohemiancoding.com/sketch -->
    <title>Tech &amp; Design Icon</title>
    <desc>Created with Sketch.</desc>
    <defs></defs>
    <g id="Welcome" stroke="none" stroke-width="1" fill="none" fill-rule="evenodd" sketch:type="MSPage">
        <g id="Desktop-HD" sketch:type="MSArtboardGroup" transform="translate(-615.000000, -782.000000)" fill="#E44A2B">
            <g id="SERVICES" sketch:type="MSLayerGroup" transform="translate(-45.000000, 682.000000)">
                <g id="Tech-&amp;-Design-Icon" transform="translate(660.000000, 100.000000)" sketch:type="MSShapeGroup">
                    <path d="M86.9524375,39.6829444 L30.9071875,39.6829444 C29.9764062,39.6829444 29.2188437,38.9217222 29.2188437,37.9864444 L29.2188437,8.56961111 C29.2188437,7.63433333 29.9764062,6.87311111 30.9071875,6.87311111 L86.9524375,6.87311111 C87.8860937,6.87311111 88.6422187,7.63433333 88.6422187,8.56961111 L88.6422187,37.9864444 C88.6422187,38.9217222 87.8860937,39.6829444 86.9524375,39.6829444 L86.9524375,39.6829444 Z M31.5547812,37.3357222 L86.307,37.3357222 L86.307,9.22033333 L31.5547812,9.22033333 L31.5547812,37.3357222 Z" id="Fill-1"></path>
                    <path d="M29.9814375,37.3299444 L88.1448438,37.3299444 L88.1448438,39.6771667 L29.9814375,39.6771667 L29.9814375,37.3299444 Z" id="Fill-2"></path>
                    <path d="M69.8231875,52.1253889 L46.82175,52.1253889 L46.82175,47.7451111 L50.1344688,47.7451111 C50.3651875,47.3832778 50.8029063,46.1410556 50.8029063,43.4363333 L53.138125,43.4363333 C53.138125,46.8192222 52.5250313,49.0032222 51.38725,49.7781667 L65.5911875,49.7781667 C64.1019375,48.6045556 64.1019375,45.2281667 64.1019375,43.4363333 L66.4371563,43.4363333 C66.4371563,47.0575556 66.8942813,47.7797778 67.033,47.9148333 L69.8231875,47.8462222 L69.8231875,52.1253889" id="Fill-3"></path>
                    <path d="M58.3224687,42.2627222 L32.4259062,42.2627222 C31.9450625,42.2627222 31.5547812,41.8705556 31.5547812,41.3895556 L31.5547812,4.016 C31.5547812,3.53283333 31.9450625,3.14066667 32.4259062,3.14066667 L58.3224687,3.14066667 L58.3224687,0.793444444 L32.4259062,0.793444444 C30.6585,0.793444444 29.2188437,2.24005556 29.2188437,4.016 L29.2188437,41.3895556 C29.2188437,43.1655 30.6585,44.6099444 32.4259062,44.6099444 L58.3224687,44.6099444 L58.3224687,42.2627222" id="Fill-4"></path>
                    <path d="M55.2994063,42.2627222 L85.4344375,42.2627222 C85.9152813,42.2627222 86.3048438,41.8705556 86.3048438,41.3895556 L86.3048438,4.016 C86.3048438,3.53283333 85.9152813,3.14066667 85.4344375,3.14066667 L55.2994063,3.14066667 L55.2994063,0.793444444 L85.4344375,0.793444444 C87.2018438,0.793444444 88.6407813,2.24005556 88.6407813,4.016 L88.6407813,41.3895556 C88.6407813,43.1655 87.2018438,44.6099444 85.4344375,44.6099444 L55.2994063,44.6099444 L55.2994063,42.2627222" id="Fill-5"></path>
                    <path d="M111.15275,49.8785556 L95.699625,49.8785556 C93.4477813,49.8785556 91.61425,48.0383333 91.61425,45.7756111 L91.61425,6.48022222 C91.61425,4.21822222 93.4477813,2.378 95.699625,2.378 L111.15275,2.378 C113.404594,2.378 115.237406,4.21822222 115.237406,6.48022222 L115.237406,45.7756111 C115.237406,48.0383333 113.404594,49.8785556 111.15275,49.8785556 M95.699625,4.56127778 C94.6452188,4.56127778 93.78775,5.42288889 93.78775,6.48022222 L93.78775,45.7756111 C93.78775,46.8336667 94.6452188,47.6945556 95.699625,47.6945556 L111.15275,47.6945556 C112.207875,47.6945556 113.064625,46.8336667 113.064625,45.7756111 L113.064625,6.48022222 C113.064625,5.42288889 112.207875,4.56127778 111.15275,4.56127778 L95.699625,4.56127778" id="Fill-6"></path>
                    <path d="M103.417562,47.5667222 C101.783844,47.5667222 100.454875,46.2298889 100.454875,44.5875556 C100.454875,42.9459444 101.783844,41.6091111 103.417562,41.6091111 C105.051281,41.6091111 106.382406,42.9459444 106.382406,44.5875556 C106.382406,46.2298889 105.051281,47.5667222 103.417562,47.5667222 M103.417562,43.7923889 C102.982719,43.7923889 102.628375,44.1484444 102.628375,44.5875556 C102.628375,45.0266667 102.982719,45.3834444 103.417562,45.3834444 C103.854562,45.3834444 104.208906,45.0266667 104.208906,44.5875556 C104.208906,44.1484444 103.854562,43.7923889 103.417562,43.7923889" id="Fill-7"></path>
                    <path d="M113.402438,41.0335 L93.4520938,41.0335 C92.4379375,41.0335 91.61425,40.2058333 91.61425,39.1867778 L91.61425,10.2733333 C91.61425,9.25355556 92.4379375,8.42661111 93.4520938,8.42661111 L113.402438,8.42661111 C114.414438,8.42661111 115.237406,9.25355556 115.237406,10.2733333 L115.237406,39.1867778 C115.237406,40.2058333 114.414438,41.0335 113.402438,41.0335 L113.402438,41.0335 Z M93.78775,38.8495 L113.065344,38.8495 L113.065344,10.6091667 L93.78775,10.6091667 L93.78775,38.8495 Z" id="Fill-8"></path>
                    <path d="M14.3392812,49.3650556 L13.2776875,49.3650556 C12.3893125,49.3650556 11.7661562,48.9136667 10.904375,48.2875 L10.1964062,47.7819444 C8.53609375,46.6271111 8.544,45.044 8.55046875,43.7728889 L8.55046875,39.1976111 C7.29984375,38.4089444 6.6680625,36.9905 6.6680625,34.9617778 C6.6680625,31.966 5.31034375,29.6 3.9971875,27.3134444 C3.484,26.4215 2.9851875,25.5497778 2.57478125,24.6715556 C1.51103125,22.7786111 0.93746875,20.6061667 0.93746875,18.4178333 C0.93746875,11.3978333 6.62925,5.68722222 13.6234062,5.68722222 L13.842625,5.69516667 L13.8591562,5.69516667 C20.9985,5.69516667 26.6787812,11.4021667 26.6787812,18.4178333 C26.6787812,20.6061667 26.1059375,22.7786111 25.0235,24.6946667 C24.6303437,25.5512222 24.1286562,26.4251111 23.6154687,27.3177778 C22.3051875,29.6036111 20.94675,31.9674444 20.94675,34.9617778 C20.94675,36.9905 20.3149687,38.4111111 19.0643437,39.1976111 L19.0643437,43.7765 C19.07225,45.0483333 19.080875,46.6271111 17.4184062,47.7819444 L16.7039687,48.2911111 C15.8472187,48.9158333 15.2255,49.3650556 14.3392812,49.3650556 M13.7578125,7.82572222 C7.78859375,7.82572222 3.05778125,12.5772222 3.05778125,18.4178333 C3.05778125,20.2378333 3.53359375,22.0455556 4.43634375,23.6416667 C4.88125,24.5928333 5.3513125,25.4103889 5.8343125,26.2488889 C7.21934375,28.6596667 8.788375,31.3954444 8.788375,34.9617778 C8.788375,37.0735556 9.63721875,37.4101111 10.0001875,37.5538333 L10.6707812,37.8196111 L10.6707812,43.783 C10.6643125,44.9833333 10.691625,45.5351111 11.4039062,46.0298333 L12.1470937,46.5606667 C12.755875,47.0033889 13.0821875,47.2345 13.2776875,47.2345 L14.3392812,47.2345 C14.5319062,47.2345 14.8575,47.0055556 15.464125,46.565 L16.211625,46.0298333 C16.9239062,45.5351111 16.9505,44.9855 16.9440312,43.7873333 L16.9440312,37.8181667 L17.6153437,37.5538333 C17.9775937,37.4101111 18.8264375,37.0735556 18.8264375,34.9617778 C18.8264375,31.3976111 20.3961875,28.664 21.7790625,26.2525 C22.2613437,25.414 22.7335625,24.5942778 23.1188125,23.7687778 C24.083375,22.0455556 24.5599062,20.2378333 24.5599062,18.4178333 C24.5599062,12.5736111 19.8204687,7.81633333 13.9935625,7.81633333 L13.7714687,7.82572222 L13.7578125,7.82572222" id="Fill-9"></path>
                    <path d="M14.0913125,40.2101667 C11.531125,40.2101667 9.44675,39.6078333 9.3101875,39.5652222 L9.9081875,37.5220556 C9.9585,37.5350556 14.5426875,38.856 17.9689688,37.3833889 L18.802,39.3435 C17.269625,40.0007222 15.5978125,40.2101667 14.0913125,40.2101667" id="Fill-10"></path>
                </g>
            </g>
        </g>
    </g>
</svg>