<?xml version="1.0" encoding="UTF-8" standalone="no"?>
<svg width="107px" height="50px" viewBox="0 0 107 50" version="1.1" xmlns="http://www.w3.org/2000/svg" xmlns:xlink="http://www.w3.org/1999/xlink" xmlns:sketch="http://www.bohemiancoding.com/sketch/ns">
    <!-- Generator: Sketch 3.3 (11970) - http://www.bohemiancoding.com/sketch -->
    <title>Training Icon</title>
    <desc>Created with Sketch.</desc>
    <defs></defs>
    <g id="Welcome" stroke="none" stroke-width="1" fill="none" fill-rule="evenodd" sketch:type="MSPage">
        <g id="Desktop-HD" sketch:type="MSArtboardGroup" transform="translate(-620.000000, -1067.000000)" fill="#E44A2B">
            <g id="SERVICES" sketch:type="MSLayerGroup" transform="translate(-45.000000, 682.000000)">
                <g id="Training-Icon" transform="translate(665.000000, 385.152442)" sketch:type="MSShapeGroup">
                    <path d="M57.6044296,49.7174242 C47.098838,49.7174242 38.6405634,49.2310606 29.6842113,48.719697 C26.7191056,48.5492424 23.6914577,48.375 20.5010493,48.2128788 C10.0527254,47.6833333 3.55737324,46.0393939 1.19508451,43.3219697 C0.338330986,42.3386364 0.217014085,41.4393939 0.264485915,40.8575758 C0.582471831,36.9992424 1.21166197,34.519697 2.13924648,33.45 C2.33290141,31.2090909 3.30192958,22.6689394 7.12529577,15.3068182 C9.32105634,11.0825758 9.58855634,8.49545455 9.74905634,6.95 C9.89976056,5.5 10.0549859,3.99924242 12.1671056,3.6530303 L12.5807887,3.61893939 C14.2212042,3.61893939 15.5172606,5.15075758 17.0190282,6.92575758 C18.9970211,9.26212121 21.237993,11.9098485 24.4803944,11.9098485 C28.1033239,11.9098485 32.4202465,8.80833333 35.5722254,6.54545455 C37.4756197,5.17727273 38.7596197,4.27575758 39.7979718,3.87651515 C40.0941056,1.97727273 41.2160986,0.231818182 43.2769789,0.231818182 C44.9324648,0.231818182 46.9360775,1.40530303 49.399338,3.81893939 C50.9802254,4.48030303 59.7738169,8.43560606 71.1022535,18.819697 C72.3191901,19.9348485 74.0507817,20.1924242 78.2335775,20.8151515 L79.2206901,20.9643939 C84.0944648,21.6931818 95.3656338,22.7871212 99.7872958,22.8636364 C104.520162,22.9454545 105.847866,23.9939394 106.241958,27.955303 C106.26381,28.1628788 106.316556,28.4287879 106.376085,28.7522727 C106.777711,30.930303 107.617134,35.4621212 104.194641,39.7712121 C99.6177535,45.5318182 88.9298099,48.7772727 72.4292042,49.4189394 C67.2208662,49.6212121 62.3734648,49.7174242 57.6044296,49.7174242 M3.80151408,35.3037879 C3.36597887,36.3113636 2.8498169,39.3090909 2.7036338,41.0598485 C2.7036338,41.069697 2.6893169,41.3022727 3.03593662,41.7015152 C3.90173239,42.6962121 7.35059859,45.0818182 20.6253803,45.755303 C23.8203099,45.9159091 26.855493,46.0893939 29.8228592,46.2606061 C38.7430423,46.7727273 47.168162,47.2560606 57.6044296,47.2560606 C62.3395563,47.2560606 67.1583239,47.1598485 72.333507,46.9575758 C88.0934014,46.3469697 98.1687324,43.4113636 102.282204,38.2318182 C105.004676,34.805303 104.331028,31.1613636 103.967831,29.2037879 C103.893986,28.7977273 103.831444,28.4575758 103.807331,28.2015152 C103.563944,25.7659091 103.525514,25.3909091 99.7443451,25.3257576 C95.157662,25.2462121 83.9083451,24.1545455 78.8597535,23.3977273 L77.8749014,23.25 C73.3070563,22.5704545 71.2213099,22.2606061 69.4520423,20.6371212 C57.5230493,9.70454545 48.3617394,6.04924242 48.2683028,6.01439394 L47.8523592,5.74242424 C45.0876901,2.98939394 43.7321056,2.69393939 43.2769789,2.69393939 C42.2491761,2.69393939 42.1655352,4.86287879 42.1655352,4.88409091 L42.1436831,6.09393939 L40.9410634,6.09848485 C40.3623592,6.12954545 38.4152606,7.52651515 36.9948732,8.54848485 C33.5731338,11.005303 28.8877394,14.3719697 24.4803944,14.3719697 C20.1039437,14.3719697 17.2435775,10.9886364 15.1540634,8.51969697 C14.282993,7.49015152 13.090169,6.08106061 12.5807887,6.08106061 C12.3630211,6.11515152 12.3004789,6.15151515 12.3004789,6.15151515 C12.286162,6.22348485 12.2288944,6.76893939 12.1836831,7.20681818 C12.0066056,8.92575758 11.7074577,11.8060606 9.29694366,16.4469697 C5.19326761,24.344697 4.5475,34.0507576 4.54071831,34.15 L4.46838028,35.3037879 L3.80151408,35.3037879" id="Fill-1"></path>
                    <path d="M73.617507,43.3628788 C65.3430915,43.3628788 56.2578873,41.875 48.9660634,40.6818182 C45.687493,40.1431818 42.5882606,39.6363636 40.1129437,39.3545455 C36.5020704,38.9416667 31.7812606,38.5325758 26.7854155,38.1 C16.8487324,37.2393939 6.57070423,36.3462121 2.96435211,35.2507576 L3.67190845,32.894697 C7.0371338,33.9166667 17.6406831,34.8371212 26.9956479,35.6477273 C32.0088239,36.080303 36.7439507,36.4916667 40.3902394,36.9075758 C42.9228239,37.1984848 46.0514437,37.7083333 49.3609085,38.2515152 C60.0767324,40.0015152 74.7462817,42.4083333 84.4365634,39.6507576 C100.987655,34.9431818 104.106479,30.8363636 103.807331,28.2181818 L106.241958,27.9393939 C106.849296,33.269697 100.131655,37.7439394 85.101169,42.0212121 C81.696007,42.9901515 77.7573521,43.3628788 73.617507,43.3628788" id="Fill-2"></path>
                    <path d="M71.6206761,21.9045455 C71.298169,21.8712121 63.6763028,21.0431818 59.0127606,17.2227273 L58.0135915,16.3977273 C53.5414437,12.7045455 46.0537042,6.52424242 40.8400915,6.09393939 L41.0412817,3.64090909 C47.0151972,4.13181818 54.8729155,10.6189394 59.5673521,14.4969697 L60.5627535,15.3143939 C64.6498521,18.6659091 71.8000141,19.45 71.8715986,19.4568182 L71.6206761,21.9045455" id="Fill-3"></path>
                    <path d="M43.2129296,12.0128788 L41.8452887,9.96893939 L49.7504789,4.62651515 L51.1181197,6.67045455 L43.2129296,12.0128788" id="Fill-4"></path>
                    <path d="M47.3211268,15.8719697 L45.6422817,14.0833333 L53.3477887,6.77651515 L55.0266338,8.56515152 L47.3211268,15.8719697" id="Fill-5"></path>
                    <path d="M51.7450493,19.9856061 L49.8650141,18.4083333 L57.3195986,9.43333333 L59.2003873,11.0106061 L51.7450493,19.9856061" id="Fill-6"></path>
                    <path d="M57.3218592,22.2795455 L55.3619507,20.8083333 L61.5219859,12.5083333 L63.4826479,13.9795455 L57.3218592,22.2795455" id="Fill-7"></path>
                    <path d="M63.6423944,24.0969697 L61.3614859,23.2075758 L64.4433873,15.2204545 L66.7258028,16.1098485 L63.6423944,24.0969697" id="Fill-8"></path>
                    <path d="M62.9664859,42.175 C62.7645423,41.8022727 57.8772042,33.0121212 44.9912394,31.9136364 C31.5378732,30.7757576 3.79171831,35.2439394 3.51442254,35.2863636 L3.12259155,32.8583333 C4.27020423,32.6704545 31.4610141,28.280303 45.1969507,29.4606061 C59.4550775,30.675 64.8985141,40.5878788 65.1230634,41.0090909 L62.9664859,42.175" id="Fill-9"></path>
                    <path d="M11.7029366,46.1356061 L9.29694366,45.6734848 L10.541007,39.1310606 L12.9462465,39.5924242 L11.7029366,46.1356061" id="Fill-10"></path>
                    <path d="M18.9819507,46.1356061 L16.5759577,45.6734848 L17.5457394,40.5901515 L19.9509789,41.0530303 L18.9819507,46.1356061" id="Fill-11"></path>
                    <path d="M26.2647324,47.594697 L23.8587394,47.1333333 L24.9566197,41.3606061 L27.3626127,41.8219697 L26.2647324,47.594697" id="Fill-12"></path>
                    <path d="M33.546007,48.7075758 L31.1400141,48.2462121 L32.384831,41.7037879 L34.7893169,42.1659091 L33.546007,48.7075758" id="Fill-13"></path>
                    <path d="M40.8287887,48.7075758 L38.4220423,48.2462121 L39.6668592,41.7037879 L42.0720986,42.1659091 L40.8287887,48.7075758" id="Fill-14"></path>
                    <path d="M48.1108169,48.7075758 L45.7040704,48.2462121 L46.814007,42.4037879 L49.22,42.8651515 L48.1108169,48.7075758" id="Fill-15"></path>
                    <path d="M55.389831,48.7075758 L52.983838,48.2462121 L53.9573873,43.1318182 L56.3633803,43.5939394 L55.389831,48.7075758" id="Fill-16"></path>
                    <path d="M60.2447676,44.4757576 L62.6937113,44.4757576 L62.6937113,48.4765152 L60.2447676,48.4765152 L60.2447676,44.4757576 Z" id="Fill-17"></path>
                    <path d="M66.8900704,44.4757576 L69.3390141,44.4757576 L69.3390141,48.4765152 L66.8900704,48.4765152 L66.8900704,44.4757576 Z" id="Fill-18"></path>
                    <path d="M73.5361268,44.4757576 L75.9850704,44.4757576 L75.9850704,48.4765152 L73.5361268,48.4765152 L73.5361268,44.4757576 Z" id="Fill-19"></path>
                    <path d="M80.1799225,44.4757576 L82.6288662,44.4757576 L82.6288662,48.4765152 L80.1799225,48.4765152 L80.1799225,44.4757576 Z" id="Fill-20"></path>
                    <path d="M86.8259789,43.2068182 L89.2749225,43.2068182 L89.2749225,47.2075758 L86.8259789,47.2075758 L86.8259789,43.2068182 Z" id="Fill-21"></path>
                    <path d="M93.4712817,40.6340909 L95.9202254,40.6340909 L95.9202254,44.6348485 L93.4712817,44.6348485 L93.4712817,40.6340909 Z" id="Fill-22"></path>
                    <path d="M100.117338,37.0878788 L102.566282,37.0878788 L102.566282,41.0886364 L100.117338,41.0886364 L100.117338,37.0878788 Z" id="Fill-23"></path>
                </g>
            </g>
        </g>
    </g>
</svg>