<?xml version="1.0" encoding="UTF-8" standalone="no"?>
<svg width="287px" height="110px" viewBox="0 0 287 110" version="1.1" xmlns="http://www.w3.org/2000/svg" xmlns:xlink="http://www.w3.org/1999/xlink" xmlns:sketch="http://www.bohemiancoding.com/sketch/ns">
    <!-- Generator: Sketch 3.3 (11970) - http://www.bohemiancoding.com/sketch -->
    <title>Logo Blaaast</title>
    <desc>Created with Sketch.</desc>
    <defs></defs>
    <g id="Welcome" stroke="none" stroke-width="1" fill="none" fill-rule="evenodd" sketch:type="MSPage">
        <g id="Desktop-HD" sketch:type="MSArtboardGroup" transform="translate(-575.000000, -295.000000)" fill="#FFFFFF">
            <g id="HEADER" sketch:type="MSLayerGroup" transform="translate(-1.000000, -2.000000)">
                <g id="Logo-Blaaast" transform="translate(577.000000, 297.999958)" sketch:type="MSShapeGroup">
                    <path d="M28.293698,35.8917526 L28.293698,35.7001031 C37.9346471,32.7187629 38.0314392,23.868866 38.0314392,18.096701 C38.0314392,10.1143299 30.9667373,0.783608247 18.5570824,0.783608247 L0.797972549,0.783608247 C0.129431373,0.783608247 -0.250984314,1.26443299 -0.250984314,1.93690722 L-0.250984314,71.8685567 C-0.250984314,72.4457732 0.0348901961,72.9254639 0.703431373,72.9254639 L18.4602902,72.9254639 C38.2205216,72.9254639 38.3161882,56.9595876 38.3161882,52.0526804 C38.3161882,44.55 34.3071922,38.1053608 28.293698,35.8917526 L28.293698,35.8917526 Z M16.8362078,15.5973196 C16.8362078,15.2106186 17.1243333,15.0201031 17.5058745,15.0201031 C18.6493725,15.0201031 21.8570196,17.2337113 21.8570196,21.447732 C21.8570196,26.4090722 18.8407059,28.5818557 17.5058745,28.5818557 C17.1243333,28.5818557 16.8362078,28.2949485 16.8362078,27.9082474 L16.8362078,15.5973196 L16.8362078,15.5973196 Z M17.5058745,58.4984536 C17.0286667,58.4984536 16.8362078,58.2092784 16.8362078,57.8237113 L16.8362078,43.778866 C16.8362078,43.2991753 17.0286667,43.011134 17.4102078,43.011134 C18.937498,43.011134 21.9526863,46.6059794 21.9526863,51.0195876 C21.9526863,57.7760825 19.0320392,58.4984536 17.5058745,58.4984536 L17.5058745,58.4984536 Z" id="Fill-1"></path>
                    <path d="M192.473455,18.4902062 C193.809412,18.4902062 194.762702,19.6457732 195.337827,21.9535052 C195.528035,22.7257732 195.909576,23.0115464 196.482451,23.0115464 L211.089063,22.3390722 C211.852145,22.3390722 212.233686,21.7607216 212.233686,21.0882474 C212.233686,9.64371134 204.310235,-0.45814433 191.517914,-0.45814433 C178.724467,-0.45814433 171.471808,10.2186598 171.471808,20.0290722 C171.471808,26.5712371 174.619804,33.7858763 181.01709,38.9796907 C187.413251,44.1746392 192.759329,48.4068041 192.759329,50.7156701 C192.759329,52.9281443 191.898329,53.792268 190.562373,53.792268 C189.244424,53.792268 181.297337,54.3468041 174.708718,54.0848454 L147.319914,1.19412371 C146.717776,0.0340206186 145.071184,0.0340206186 144.471298,1.19412371 L136.815714,15.9783505 L165.834227,72.9254639 L175.046365,72.9254639 C179.350239,73.643299 185.12738,72.9254639 191.825173,72.9254639 C204.333871,72.9254639 212.13802,61.874433 212.13802,48.9828866 C212.13802,41.8657732 207.461608,34.9391753 201.254529,30.7070103 C195.528035,26.7651546 191.040706,23.3018557 191.040706,20.2229897 C191.040706,19.2613402 191.517914,18.4902062 192.473455,18.4902062" id="Fill-2"></path>
                    <path d="M256.716435,-0.265360825 L215.856639,-0.265360825 C215.28489,-0.265360825 214.996765,0.119072165 214.996765,0.69742268 L214.996765,17.818866 C214.996765,18.3960825 215.665306,19.1649485 216.239306,19.1649485 L225.784588,19.1649485 C226.453129,19.1649485 227.027129,19.6457732 227.027129,20.3193814 L227.027129,70.5304124 C227.027129,71.3004124 227.694545,71.8764948 228.364212,71.8764948 L244.592655,71.8764948 C245.355737,71.8764948 245.928612,71.3004124 245.928612,70.6268041 L245.928612,20.5121649 C245.928612,19.6457732 246.40582,19.1649485 247.075486,19.1649485 L256.620769,19.1649485 C257.383851,19.1649485 257.957851,18.5865979 257.957851,17.818866 L257.957851,0.889072165 C257.957851,0.119072165 257.383851,-0.265360825 256.716435,-0.265360825" id="Fill-3"></path>
                    <path d="M266.701784,55.7541237 C266.471059,55.6316495 266.194188,55.8017526 266.194188,56.0648454 L266.194188,71.7381443 C266.194188,72.0023711 266.471059,72.1713402 266.701784,72.048866 L281.610027,64.2116495 C281.859886,64.0823711 281.859886,63.7228866 281.610027,63.5913402 L266.701784,55.7541237" id="Fill-4"></path>
                    <path d="M283.822741,-0.272164948 L264.312369,-0.272164948 C263.602184,-0.272164948 263.027059,0.308453608 263.027059,1.02402062 L264.979784,49.8447423 C264.979784,50.5591753 265.55491,51.1397938 266.265094,51.1397938 L281.86889,51.1397938 C282.579075,51.1397938 283.155325,50.5591753 283.155325,49.8447423 L285.106925,1.02402062 C285.106925,0.308453608 284.532925,-0.272164948 283.822741,-0.272164948" id="Fill-5"></path>
                    <path d="M125.872573,1.19185567 C125.272686,0.0340206186 123.626094,0.0340206186 123.023957,1.19185567 L110.462361,25.4519588 L121.064478,46.2578351 L125.070098,38.5226804 C125.199529,38.2720619 125.55631,38.2720619 125.686867,38.5226804 L133.465129,53.5439175 C133.585557,53.7775258 133.416733,54.0564948 133.157871,54.0564948 L125.03971,54.0564948 L134.653647,72.9254639 L160.366596,72.9254639 C161.573122,72.9254639 162.348584,71.6360825 161.791467,70.5598969 L125.872573,1.19185567" id="Fill-6"></path>
                    <path d="M94.3847333,1.19298969 C93.7848471,0.0340206186 92.1382549,0.0340206186 91.5383686,1.19298969 L64.7044314,53.0154639 L60.4602078,53.0154639 C60.1754588,53.0154639 59.8862078,52.7262887 59.8862078,52.3418557 L59.8862078,1.84164948 C59.8862078,1.26443299 59.5057922,0.783608247 58.9340431,0.783608247 L42.7990157,0.783608247 C42.1316,0.783608247 41.559851,1.55360825 41.559851,2.13082474 L41.559851,71.6746392 C41.559851,72.3493814 42.0348078,72.9254639 42.6076824,72.9254639 L128.881008,72.9254639 C130.086408,72.9254639 130.862996,71.6360825 130.303627,70.5598969 L94.3847333,1.19298969 L94.3847333,1.19298969 Z M99.9660392,54.0564948 L84.4095137,54.0564948 C84.1484,54.0564948 83.980702,53.7775258 84.1022549,53.5439175 L91.8805176,38.5226804 C92.0088235,38.2720619 92.3656039,38.2720619 92.4972863,38.5226804 L100.275549,53.5439175 C100.394851,53.7775258 100.227153,54.0564948 99.9660392,54.0564948 L99.9660392,54.0564948 Z" id="Fill-7"></path>
                    <path d="M3.38547451,108.574536 L3.38547451,86.6924742 L9.05344314,86.6924742 C10.3387529,86.6924742 11.3933373,87.7550515 11.3933373,89.0489691 L11.3933373,106.216907 C11.3933373,107.511959 10.3387529,108.574536 9.05344314,108.574536 L3.38547451,108.574536 L3.38547451,108.574536 Z M5.78952157,106.549175 L8.98703922,106.549175 L8.98703922,88.7178351 L5.78952157,88.7178351 L5.78952157,106.549175 Z" id="Fill-8"></path>
                    <path d="M19.398949,86.6924742 L21.8052471,86.6924742 L21.8052471,108.57567 L19.398949,108.57567 L19.398949,86.6924742 Z" id="Fill-9"></path>
                    <path d="M32.1203647,108.774124 C30.8350549,108.774124 29.7793451,107.711546 29.7793451,106.416495 L29.7793451,88.8505155 C29.7793451,87.5554639 30.8350549,86.4928866 32.1203647,86.4928866 L35.6791647,86.4928866 C36.9644745,86.4928866 37.9852941,87.5554639 37.9852941,88.8505155 L37.9852941,92.3036082 L35.5801216,92.3036082 L35.5801216,88.5182474 L32.1867686,88.5182474 L32.1867686,106.747629 L35.877251,106.747629 L35.877251,99.7087629 L34.1957686,99.7087629 L34.1957686,97.6493814 L38.1169765,97.6493814 L38.1169765,106.416495 C38.1169765,107.711546 37.0961569,108.774124 35.8108471,108.774124 L32.1203647,108.774124" id="Fill-10"></path>
                    <path d="M45.9931569,86.6924742 L48.3983294,86.6924742 L48.3983294,108.57567 L45.9931569,108.57567 L45.9931569,86.6924742 Z" id="Fill-11"></path>
                    <path d="M58.2508706,108.574536 L58.2508706,88.7507216 L55.6476118,88.7507216 L55.6476118,86.6924742 L63.2930667,86.6924742 L63.2930667,88.7507216 L60.6898078,88.7507216 L60.6898078,108.574536 L58.2508706,108.574536" id="Fill-12"></path>
                    <path d="M75.7488667,108.574536 L75.7488667,99.7745361 L72.4534314,99.7745361 L72.4534314,108.574536 L70.0471333,108.574536 L70.0471333,89.0489691 C70.0471333,87.7550515 71.1017176,86.6924742 72.3870275,86.6924742 L75.8479098,86.6924742 C77.1332196,86.6924742 78.1878039,87.7550515 78.1878039,89.0489691 L78.1878039,108.574536 L75.7488667,108.574536 L75.7488667,108.574536 Z M72.4534314,97.7491753 L75.7488667,97.7491753 L75.7488667,88.7178351 L72.4534314,88.7178351 L72.4534314,97.7491753 Z" id="Fill-13"></path>
                    <path d="M86.2271804,108.574536 L86.2271804,86.6924742 L88.6323529,86.6924742 L88.6323529,106.549175 L92.4894078,106.549175 L92.4894078,108.574536 L86.2271804,108.574536" id="Fill-14"></path>
                    <path d="M116.278894,108.574536 L116.278894,99.7745361 L112.984584,99.7745361 L112.984584,108.574536 L110.579412,108.574536 L110.579412,89.0489691 C110.579412,87.7550515 111.633996,86.6924742 112.91818,86.6924742 L116.377937,86.6924742 C117.664373,86.6924742 118.718957,87.7550515 118.718957,89.0489691 L118.718957,108.574536 L116.278894,108.574536 L116.278894,108.574536 Z M112.984584,97.7491753 L116.28002,97.7491753 L116.28002,88.7178351 L112.984584,88.7178351 L112.984584,97.7491753 Z" id="Fill-15"></path>
                    <path d="M128.999184,108.774124 C127.715,108.774124 126.65929,107.711546 126.65929,106.416495 L126.65929,88.8505155 C126.65929,87.5554639 127.715,86.4928866 128.999184,86.4928866 L132.557984,86.4928866 C133.843294,86.4928866 134.865239,87.5554639 134.865239,88.8505155 L134.865239,92.3036082 L132.458941,92.3036082 L132.458941,88.5182474 L129.065588,88.5182474 L129.065588,106.747629 L132.458941,106.747629 L132.458941,102.53134 L134.865239,102.53134 L134.865239,106.416495 C134.865239,107.711546 133.843294,108.774124 132.557984,108.774124 L128.999184,108.774124" id="Fill-16"></path>
                    <path d="M144.749294,108.774124 C143.46511,108.774124 142.4094,107.711546 142.4094,106.416495 L142.4094,88.8505155 C142.4094,87.5554639 143.46511,86.4928866 144.749294,86.4928866 L148.30922,86.4928866 C149.594529,86.4928866 150.616475,87.5554639 150.616475,88.8505155 L150.616475,92.3036082 L148.211302,92.3036082 L148.211302,88.5182474 L144.815698,88.5182474 L144.815698,106.747629 L148.211302,106.747629 L148.211302,102.53134 L150.616475,102.53134 L150.616475,106.416495 C150.616475,107.711546 149.594529,108.774124 148.30922,108.774124 L144.749294,108.774124" id="Fill-17"></path>
                    <path d="M158.293443,108.574536 L158.293443,86.6924742 L165.115039,86.6924742 L165.115039,88.7178351 L160.698616,88.7178351 L160.698616,96.5868041 L164.390224,96.5868041 L164.390224,98.6461856 L160.698616,98.6461856 L160.698616,106.549175 L165.115039,106.549175 L165.115039,108.574536 L158.293443,108.574536" id="Fill-18"></path>
                    <path d="M172.528643,108.574536 L172.528643,86.6924742 L174.934941,86.6924742 L174.934941,106.549175 L178.789745,106.549175 L178.789745,108.574536 L172.528643,108.574536" id="Fill-19"></path>
                    <path d="M186.138071,108.574536 L186.138071,86.6924742 L192.959667,86.6924742 L192.959667,88.7178351 L188.543243,88.7178351 L188.543243,96.5868041 L192.234851,96.5868041 L192.234851,98.6461856 L188.543243,98.6461856 L188.543243,106.549175 L192.959667,106.549175 L192.959667,108.574536 L186.138071,108.574536" id="Fill-20"></path>
                    <path d="M206.271965,108.574536 L204.656886,99.7745361 L202.745804,99.7745361 L202.745804,108.574536 L200.339506,108.574536 L200.339506,86.6924742 L205.943322,86.6924742 C207.227506,86.6924742 208.283216,87.7550515 208.283216,89.0489691 L208.283216,97.3840206 C208.283216,98.3139175 207.755361,99.111134 206.99678,99.5103093 L208.77618,108.574536 L206.271965,108.574536 L206.271965,108.574536 Z M202.745804,97.8489691 L205.876918,97.8489691 L205.876918,88.7507216 L202.745804,88.7507216 L202.745804,97.8489691 Z" id="Fill-21"></path>
                    <path d="M221.826239,108.574536 L221.826239,99.7745361 L218.529678,99.7745361 L218.529678,108.574536 L216.12338,108.574536 L216.12338,89.0489691 C216.12338,87.7550515 217.17909,86.6924742 218.463275,86.6924742 L221.925282,86.6924742 C223.209467,86.6924742 224.265176,87.7550515 224.265176,89.0489691 L224.265176,108.574536 L221.826239,108.574536 L221.826239,108.574536 Z M218.529678,97.7491753 L221.826239,97.7491753 L221.826239,88.7178351 L218.529678,88.7178351 L218.529678,97.7491753 Z" id="Fill-22"></path>
                    <path d="M233.622502,108.574536 L233.622502,88.7507216 L231.019243,88.7507216 L231.019243,86.6924742 L238.664698,86.6924742 L238.664698,88.7507216 L236.060314,88.7507216 L236.060314,108.574536 L233.622502,108.574536" id="Fill-23"></path>
                    <path d="M245.880216,86.6924742 L248.286514,86.6924742 L248.286514,108.57567 L245.880216,108.57567 L245.880216,86.6924742 Z" id="Fill-24"></path>
                    <path d="M258.633145,108.774124 C257.347835,108.774124 256.293251,107.711546 256.293251,106.416495 L256.293251,88.8505155 C256.293251,87.5554639 257.347835,86.4928866 258.633145,86.4928866 L262.193071,86.4928866 C263.47838,86.4928866 264.531839,87.5554639 264.531839,88.8505155 L264.531839,106.416495 C264.531839,107.711546 263.47838,108.774124 262.193071,108.774124 L258.633145,108.774124 L258.633145,108.774124 Z M258.732188,106.747629 L262.127792,106.747629 L262.127792,88.5182474 L258.732188,88.5182474 L258.732188,106.747629 Z" id="Fill-25"></path>
                    <path d="M278.503675,108.574536 L278.503675,88.7507216 L274.943749,88.7507216 L274.943749,108.574536 L272.537451,108.574536 L272.537451,86.6924742 L274.943749,86.6924742 L274.943749,87.9206186 C275.273518,87.0905155 275.801373,86.6924742 276.854831,86.6924742 L278.634231,86.6924742 C279.920667,86.6924742 280.974125,87.7550515 280.974125,89.0489691 L280.974125,108.574536 L278.503675,108.574536" id="Fill-26"></path>
                </g>
            </g>
        </g>
    </g>
</svg>