<svg height="60" viewBox="0 0 60 60" width="60" xmlns="http://www.w3.org/2000/svg"><style type="text/css"><![CDATA[
	.st0{fill:none;stroke:#231F20;stroke-width:1.5;stroke-linecap:round;stroke-linejoin:round;stroke-miterlimit:10;}
]]></style><path class="st0" d="M29.157 20.533S17.523 23.23 4.54 8.056c0 0-5.057 9.948 3.71 16.017 0 0-2.864.506-5.227-1.18 0 0-1.012 8.6 9.442 11.97H6.9s1.52 6.914 11.298 8.43c0 0-4.046 5.396-17.198 5.06 0 0 7.42 5.73 18.717 5.562 0 0 20.905 1.012 30.853-22.593 2.446-5.805 2.192-11.295 2.023-13.994L59 11.598l-6.407 1.18s4.384-3.204 4.89-6.24l-7.08 2.867S45.09 4.6 36.07 6.54c0 0-8.26 1.685-6.913 13.993z"/></svg>