<?xml version="1.0" encoding="UTF-8" standalone="no"?>
<svg width="44px" height="26px" viewBox="0 0 44 26" version="1.1" xmlns="http://www.w3.org/2000/svg" xmlns:xlink="http://www.w3.org/1999/xlink" xmlns:sketch="http://www.bohemiancoding.com/sketch/ns">
    <!-- Generator: Sketch 3.1.1 (8761) - http://www.bohemiancoding.com/sketch -->
    <title>Monogramme Blaaast</title>
    <desc>Created with Sketch.</desc>
    <defs></defs>
    <g id="Welcome" stroke="none" stroke-width="1" fill="none" fill-rule="evenodd" sketch:type="MSPage" opacity="0.05">
        <g id="Mobile-Portrait" sketch:type="MSArtboardGroup" transform="translate(-11.000000, -12.000000)" fill="#FFFFFF">
            <g id="HEADER-3" sketch:type="MSLayerGroup" transform="translate(-560.000000, 0.000000)">
                <g id="NAVBAR" sketch:type="MSShapeGroup">
                    <g id="Monogramme-Blaaast" transform="translate(571.000000, 13.000000)">
                        <path d="M43.5852353,23.4044872 L31.3551765,0.182051282 C31.1507059,-0.205769231 30.5903529,-0.205769231 30.3852353,0.182051282 L27.7788824,5.13205128 L37.6588235,24.1967949 L43.1005882,24.1967949 C43.5108235,24.1967949 43.7754706,23.7647436 43.5852353,23.4044872" id="Fill-1"></path>
                        <path d="M36.2825294,23.4044872 L24.0524706,0.182051282 C23.848,-0.205769231 23.2876471,-0.205769231 23.0831765,0.182051282 L18.8067647,8.30320513 L22.4160588,15.2692308 L23.7794118,12.6794872 C23.8234118,12.5955128 23.9450588,12.5955128 23.9890588,12.6794872 L26.6374706,17.7083333 C26.6788824,17.7865385 26.6219412,17.8801282 26.5326471,17.8801282 L23.7684118,17.8801282 L27.0425294,24.1967949 L35.7978824,24.1967949 C36.2081176,24.1967949 36.4721176,23.7647436 36.2825294,23.4044872" id="Fill-2"></path>
                        <path d="M25.5614118,23.4044872 L13.3313529,0.182051282 C13.1275294,-0.205769231 12.5665294,-0.205769231 12.3627059,0.182051282 L0.132647059,23.4044872 C-0.0582352941,23.7653846 0.206411765,24.1961538 0.617294118,24.1961538 L25.0767647,24.1961538 C25.4882941,24.1961538 25.7516471,23.7653846 25.5614118,23.4044872 M15.2324118,17.8794872 L9.93494118,17.8794872 C9.84564706,17.8794872 9.78870588,17.7865385 9.83011765,17.7083333 L12.4785294,12.6794872 C12.5225294,12.5955128 12.6448235,12.5955128 12.6881765,12.6794872 L15.3365882,17.7083333 C15.3786471,17.7865385 15.3204118,17.8794872 15.2324118,17.8794872" id="Fill-3"></path>
                    </g>
                </g>
            </g>
        </g>
    </g>
</svg>
