<?xml version="1.0" encoding="UTF-8" standalone="no"?>
<svg width="121px" height="62px" viewBox="0 0 121 62" version="1.1" xmlns="http://www.w3.org/2000/svg" xmlns:xlink="http://www.w3.org/1999/xlink" xmlns:sketch="http://www.bohemiancoding.com/sketch/ns">
    <!-- Generator: Sketch 3.3 (11970) - http://www.bohemiancoding.com/sketch -->
    <title>Positive Impact Icon</title>
    <desc>Created with Sketch.</desc>
    <defs></defs>
    <g id="Welcome" stroke="none" stroke-width="1" fill="none" fill-rule="evenodd" sketch:type="MSPage">
        <g id="Desktop-HD" sketch:type="MSArtboardGroup" transform="translate(-827.000000, -921.000000)" fill="#E44A2B">
            <g id="SERVICES" sketch:type="MSLayerGroup" transform="translate(-45.000000, 682.000000)">
                <g id="Positive-Impact-Icon" transform="translate(871.500000, 238.999958)" sketch:type="MSShapeGroup">
                    <path d="M60.8665806,52.0666582 C58.0904903,52.0666582 55.8299484,51.4168354 55.6827613,51.3728861 L56.331329,49.1738481 C56.3848516,49.1879747 61.3561548,50.608481 65.0712516,49.0247342 L65.9740516,51.1327342 C64.3124903,51.8406329 62.5013806,52.0666582 60.8665806,52.0666582" id="Fill-1"></path>
                    <path d="M55.6827613,53.5774177 C56.8641935,53.5774177 58.8775871,54.0435949 60.8303742,54.0435949 C62.5328645,54.0435949 64.1865548,53.5774177 65.2003355,53.5774177" id="Fill-2"></path>
                    <path d="M60.8303742,55.2208101 C59.6544516,55.2208101 58.5005677,55.068557 57.4820645,54.9343544 C56.7815484,54.8417468 56.1211742,54.7538481 55.6827613,54.7538481 L55.6827613,52.3994177 C56.2770194,52.3994177 56.9783226,52.4928101 57.7913935,52.6003291 C58.7374839,52.7251139 59.8102968,52.8663797 60.8303742,52.8663797 C61.6977548,52.8663797 62.5903226,52.7266835 63.3758452,52.6034684 C64.0692774,52.4943797 64.667471,52.3994177 65.2003355,52.3994177 L65.2003355,54.7538481 C64.8508645,54.7538481 64.3132774,54.8393924 63.7442065,54.9288608 C62.8713161,55.0654177 61.8835097,55.2208101 60.8303742,55.2208101" id="Fill-3"></path>
                    <path d="M55.6827613,56.5220253 C56.8641935,56.5220253 58.8775871,56.9882025 60.8303742,56.9882025 C62.5328645,56.9882025 64.1865548,56.5220253 65.2003355,56.5220253" id="Fill-4"></path>
                    <path d="M60.8303742,58.1654177 C59.6544516,58.1654177 58.5005677,58.0131646 57.4820645,57.878962 C56.7815484,57.7871392 56.1211742,57.7000253 55.6827613,57.7000253 L55.6827613,55.3455949 C56.2770194,55.3455949 56.9783226,55.4374177 57.7906065,55.5449367 C58.7374839,55.6697215 59.8102968,55.8109873 60.8303742,55.8109873 C61.6985419,55.8109873 62.5903226,55.6705063 63.3774194,55.5480759 C64.0692774,55.4389873 64.667471,55.3455949 65.2003355,55.3455949 L65.2003355,57.7000253 C64.8508645,57.7000253 64.3132774,57.784 63.7442065,57.8734684 C62.8713161,58.0100253 61.8835097,58.1654177 60.8303742,58.1654177" id="Fill-5"></path>
                    <path d="M55.6127097,21.3491899 L53.1939613,19.3785316 L51.5268903,20.7362532 L50.0329806,18.9139241 L53.1939613,16.3381772 L55.6016903,18.3002025 L57.9834452,16.3334684 L60.4006194,18.3041266 L62.813071,16.3381772 L65.2326065,18.3088354 L67.6812645,16.3421013 L70.8359484,18.9139241 L69.3396774,20.7362532 L67.6710323,19.3746076 L65.2231613,21.340557 L62.813071,19.3785316 L60.4006194,21.3452658 L57.9928903,19.3832405 L55.6127097,21.3491899" id="Fill-6"></path>
                    <path d="M52.6422065,35.741038 L48.978271,17.2917215 L51.2939097,16.8341772 L54.9586323,35.2842785 L52.6422065,35.741038" id="Fill-7"></path>
                    <path d="M68.0480516,35.741038 L65.7324129,35.2842785 L69.3971355,16.8341772 L71.7127742,17.2917215 L68.0480516,35.741038" id="Fill-8"></path>
                    <path d="M105.211613,56.1649367 L104.678748,55.8957468 C104.252142,55.6799241 94.175729,50.5213671 90.3811355,42.3852405 C90.0489806,41.7495443 89.686129,40.642962 89.6452,40.5197468 C89.1918323,39.1110127 88.962,37.6842278 88.962,36.2770633 C88.962,30.6232911 93.3925677,26.023519 98.8377032,26.023519 C101.176168,26.023519 103.439858,26.895443 105.211613,28.4462278 C106.984155,26.895443 109.247845,26.023519 111.587097,26.023519 C117.032232,26.023519 121.4628,30.6232911 121.4628,36.2770633 C121.4628,37.6292911 121.240839,39.010557 120.784323,40.5009114 C120.555277,41.2488354 120.068852,42.3263797 120.049174,42.3726835 C116.249071,50.5213671 106.172658,55.6799241 105.745265,55.8957468 L105.211613,56.1649367 L105.211613,56.1649367 Z M98.8377032,28.3779494 C94.6936387,28.3779494 91.3232903,31.9213671 91.3232903,36.2770633 C91.3232903,37.4385823 91.5145548,38.6236456 91.8931484,39.7969367 C91.9852387,40.0802532 92.2748903,40.9152911 92.5,41.3453671 C95.4956903,47.7682532 103.125806,52.3468354 105.211613,53.5075696 C107.298994,52.3476203 114.925174,47.7745316 117.901187,41.3924557 C118.019252,41.1318987 118.372658,40.3141266 118.525355,39.8126329 C118.913394,38.5490886 119.10151,37.3922785 119.10151,36.2770633 C119.10151,31.9213671 115.730374,28.3779494 111.587097,28.3779494 C109.483187,28.3779494 107.533548,29.2687089 106.09631,30.8854177 L105.211613,31.8789873 L104.32849,30.8854177 C102.890465,29.2687089 100.940826,28.3779494 98.8377032,28.3779494 L98.8377032,28.3779494 Z" id="Fill-9"></path>
                    <path d="M96.8794065,23.7279494 L96.3457548,23.4579747 C96.0592516,23.3135696 89.2894323,19.8470633 86.7274323,14.3533924 C86.5015355,13.9217468 86.2528129,13.1612658 86.2244774,13.0765063 C85.912,12.1080506 85.7530065,11.1254684 85.7530065,10.1530886 C85.7530065,6.20235443 88.8573161,2.98620253 92.6723742,2.98620253 C94.1993419,2.98620253 95.6806581,3.51437975 96.8794065,4.464 C98.0789419,3.51437975 99.559471,2.98620253 101.086439,2.98620253 C104.901497,2.98620253 108.005019,6.20235443 108.005019,10.1530886 C108.005019,11.0862278 107.85311,12.0366329 107.539845,13.0584557 C107.384,13.5670127 107.071523,14.2631392 107.03689,14.3400506 C104.469381,19.8470633 97.7003484,23.3135696 97.412271,23.4579747 L96.8794065,23.7279494 L96.8794065,23.7279494 Z M92.6723742,5.34063291 C90.1591742,5.34063291 88.1142968,7.49964557 88.1142968,10.1530886 C88.1142968,10.8798228 88.2347226,11.6198987 88.4716387,12.3536962 C88.5527097,12.6009114 88.725871,13.0843544 88.8462968,13.3143038 C90.6967613,17.2807342 95.3083613,20.1696203 96.8794065,21.0658734 C98.4512387,20.1704051 103.058116,17.2893671 104.88969,13.3613924 C104.962103,13.2005063 105.186426,12.6801772 105.281665,12.370962 C105.525665,11.5743797 105.643729,10.85 105.643729,10.1530886 C105.643729,7.49964557 103.599639,5.34063291 101.086439,5.34063291 C99.8144903,5.34063291 98.6346323,5.88136709 97.762529,6.86159494 L96.8794065,7.85516456 L95.9954968,6.86159494 C95.1241806,5.88136709 93.9443226,5.34063291 92.6723742,5.34063291 L92.6723742,5.34063291 Z" id="Fill-10"></path>
                    <path d="M29.3016387,16.3829114 L28.7679871,16.1145063 C28.5696387,16.0148354 23.9186839,13.6321519 22.1453548,9.83053165 C21.9902968,9.53544304 21.8226452,9.02924051 21.7911613,8.93113924 C21.5684129,8.24129114 21.4566452,7.54281013 21.4566452,6.85139241 C21.4566452,3.98997468 23.7108903,1.66144304 26.4822581,1.66144304 C27.4928903,1.66144304 28.4759742,1.97850633 29.3016387,2.55612658 C30.1273032,1.97850633 31.1096,1.66144304 32.1202323,1.66144304 C34.8916,1.66144304 37.1466323,3.98997468 37.1466323,6.85139241 C37.1466323,7.51691139 37.0388,8.19027848 36.8176258,8.91308861 C36.705071,9.27567089 36.4870452,9.76303797 36.4626452,9.81797468 C34.6838065,13.6321519 30.0320645,16.0148354 29.8345032,16.1145063 L29.3016387,16.3829114 L29.3016387,16.3829114 Z M26.4822581,4.01587342 C25.0127484,4.01587342 23.8179355,5.28883544 23.8179355,6.85139241 C23.8179355,7.29794937 23.8919226,7.75470886 24.0383226,8.20832911 C24.090271,8.36764557 24.1988903,8.66665823 24.2634323,8.79065823 C25.4007871,11.2267089 28.1390968,13.0333418 29.3008516,13.714557 C30.4618194,13.0309873 33.2017032,11.2267089 34.3154452,8.83774684 C34.3154452,8.83774684 34.484671,8.46810127 34.5594452,8.22402532 C34.7113548,7.72881013 34.7853419,7.27989873 34.7853419,6.85139241 C34.7853419,5.28883544 33.5889548,4.01587342 32.1202323,4.01587342 C31.3811484,4.01587342 30.6940129,4.33136709 30.1847613,4.90349367 L29.3008516,5.89706329 L28.417729,4.90349367 C27.9084774,4.33136709 27.2213419,4.01587342 26.4822581,4.01587342 L26.4822581,4.01587342 Z" id="Fill-11"></path>
                    <path d="M80.0276645,55.8345316 L79.4948,55.5653418 C79.2964516,55.4656709 74.6454968,53.0837722 72.8721677,49.2813671 C72.7163226,48.9862785 72.548671,48.4800759 72.5171871,48.3819747 C72.2944387,47.6913418 72.1818839,46.9928608 72.1818839,46.3030127 C72.1818839,43.4415949 74.4369161,41.1122785 77.2082839,41.1122785 C78.2197032,41.1122785 79.2027871,41.4301266 80.0276645,42.006962 C80.8525419,41.4301266 81.8356258,41.1122785 82.8462581,41.1122785 C85.6176258,41.1122785 87.871871,43.4415949 87.871871,46.3030127 C87.871871,46.9677468 87.7648258,47.6411139 87.5436516,48.3631392 C87.4318839,48.7272911 87.213071,49.2138734 87.188671,49.2688101 C85.4098323,53.0837722 80.7580903,55.4656709 80.560529,55.5653418 L80.0276645,55.8345316 L80.0276645,55.8345316 Z M77.2082839,43.4667089 C75.7387742,43.4667089 74.5431742,44.7396709 74.5431742,46.3030127 C74.5431742,46.748 74.6171613,47.2047595 74.7643484,47.6591646 C74.8162968,47.8192658 74.9249161,48.1174937 74.9902452,48.2430633 C76.1268129,50.6791139 78.8651226,52.484962 80.0268774,53.166962 C81.1878452,52.4833924 83.927729,50.6783291 85.041471,48.2893671 C85.041471,48.2893671 85.2106968,47.9181519 85.285471,47.6740759 C85.4373806,47.1796456 85.5105806,46.7307342 85.5105806,46.3030127 C85.5105806,44.7396709 84.3157677,43.4667089 82.8462581,43.4667089 C82.1071742,43.4667089 81.4200387,43.7822025 80.9107871,44.3543291 L80.0276645,45.3486835 L79.1437548,44.3543291 C78.6345032,43.7822025 77.9473677,43.4667089 77.2082839,43.4667089 L77.2082839,43.4667089 Z" id="Fill-12"></path>
                    <path d="M42.6027871,50.4546582 L42.0699226,50.1862532 C41.9361161,50.1179747 38.7743484,48.4996962 37.5567097,45.8886329 C37.4512387,45.6892911 37.3378968,45.351038 37.3064129,45.2537215 C37.1482065,44.7624304 37.0679226,44.2640759 37.0679226,43.7696456 C37.0679226,41.6757722 38.7247613,39.9711646 40.7609806,39.9711646 C41.4126968,39.9711646 42.0470968,40.1501013 42.6027871,40.4781519 C43.1584774,40.1501013 43.7936645,39.9711646 44.4445935,39.9711646 C46.4808129,39.9711646 48.1376516,41.6757722 48.1376516,43.7696456 C48.1376516,44.2460253 48.0613032,44.7263291 47.904671,45.2364557 C47.8283226,45.4875949 47.6551613,45.8760759 47.6551613,45.8760759 C46.4320129,48.4996962 43.2702452,50.1179747 43.1364387,50.1862532 L42.6027871,50.4546582 L42.6027871,50.4546582 Z M40.7609806,42.3255949 C40.0266194,42.3255949 39.4292129,42.9738481 39.4292129,43.7696456 C39.4292129,44.0192152 39.470929,44.2750633 39.5535742,44.5316962 C39.5575097,44.5411139 39.617329,44.7373165 39.6755742,44.8495443 C40.2808516,46.1460506 41.7007742,47.2243797 42.5996387,47.7800253 C43.399329,47.2863797 44.8845806,46.2331646 45.5079613,44.8958481 C45.5079613,44.8958481 45.6039871,44.6870886 45.6464903,44.548962 C45.7338581,44.2632911 45.7763613,44.0090127 45.7763613,43.7696456 C45.7763613,42.9738481 45.1789548,42.3255949 44.4445935,42.3255949 C44.0809548,42.3255949 43.740929,42.482557 43.4866968,42.7682278 L42.6027871,43.7625823 L41.7196645,42.7682278 C41.4662194,42.482557 41.1254065,42.3255949 40.7609806,42.3255949 L40.7609806,42.3255949 Z" id="Fill-13"></path>
                    <path d="M19.4401032,52.7102025 L18.9064516,52.4410127 C18.4153032,52.1930127 6.83553548,46.264557 2.48131613,36.9268861 C2.10036129,36.1985823 1.68556129,34.935038 1.63990968,34.7929873 C1.1212129,33.1849114 0.859109677,31.5564304 0.859109677,29.9507089 C0.859109677,23.5231139 5.89259355,18.2939241 12.0791742,18.2939241 C14.7875742,18.2939241 17.4093935,19.3235949 19.4401032,21.1537722 C21.4700258,19.3235949 24.0918452,18.2939241 26.8002452,18.2939241 C32.9868258,18.2939241 38.0203097,23.5231139 38.0203097,29.9507089 C38.0203097,31.4944304 37.7668645,33.0726835 37.2450194,34.7749367 C36.9837032,35.6264557 36.4272258,36.8617468 36.4044,36.9143291 C32.0438839,46.264557 20.4641161,52.1930127 19.9737548,52.4410127 L19.4401032,52.7102025 L19.4401032,52.7102025 Z M12.0791742,20.6483544 C7.19445161,20.6483544 3.2204,24.8211899 3.2204,29.9507089 C3.2204,31.3115696 3.44472258,32.6975443 3.88785806,34.070962 C3.99490323,34.4021519 4.33414194,35.3792405 4.59939355,35.8870127 C8.12165161,43.4384557 17.1496516,48.7900759 19.4401032,50.0544051 C21.7305548,48.7900759 30.7554065,43.4431646 34.2564129,35.9341013 C34.2564129,35.9341013 34.7696,34.7953418 34.9868387,34.087443 C35.4394194,32.6112152 35.6590194,31.2582025 35.6590194,29.9507089 C35.6590194,24.8211899 31.6849677,20.6483544 26.8002452,20.6483544 C24.318529,20.6483544 22.0186323,21.6984304 20.3232258,23.605519 L19.4401032,24.5990886 L18.5561935,23.605519 C16.8607871,21.6984304 14.5608903,20.6483544 12.0791742,20.6483544 L12.0791742,20.6483544 Z" id="Fill-14"></path>
                    <path d="M18.2594581,27.9816203 L20.6207484,27.9816203 L20.6207484,42.0948608 L18.2594581,42.0948608 L18.2594581,27.9816203 Z" id="Fill-15"></path>
                    <path d="M12.362529,33.8614177 L26.5176774,33.8614177 L26.5176774,36.2158481 L12.362529,36.2158481 L12.362529,33.8614177 Z" id="Fill-16"></path>
                    <path d="M104.031755,34.5708861 L106.393045,34.5708861 L106.393045,46.7950886 L104.031755,46.7950886 L104.031755,34.5708861 Z" id="Fill-17"></path>
                    <path d="M99.0824903,39.5057722 L111.34231,39.5057722 L111.34231,41.8602025 L99.0824903,41.8602025 L99.0824903,39.5057722 Z" id="Fill-18"></path>
                    <path d="M67.6332516,39.9374177 C66.7202194,41.8225316 66.0008129,43.9297468 66.0008129,46.4183797 C66.0008129,48.6911899 65.0806968,49.0537722 64.6879355,49.2083797 L63.959871,49.4916962 L63.959871,55.9145823 C63.9669548,57.2040253 63.9378323,57.7942025 63.1649032,58.3278734 L62.3549806,58.9031392 C61.6969677,59.3779494 61.3443484,59.6243797 61.1357677,59.6243797 L59.9842452,59.6243797 C59.7733032,59.6243797 59.4183226,59.3755949 58.7579484,58.8984304 L57.9527484,58.3278734 C57.1798194,57.7942025 57.1506968,57.2016709 57.1577806,55.9106582 L57.1577806,49.4948354 L56.4297161,49.2083797 C56.0369548,49.0537722 55.1168387,48.6911899 55.1168387,46.4183797 C55.1168387,43.9305316 54.3982194,41.8225316 53.4859742,39.9374177 C52.0723484,38.9564051 50.5194065,37.7886076 48.9499355,36.4544304 C49.2584774,37.0281266 49.5827613,37.604962 49.9212129,38.1896456 C51.345071,40.6500253 52.817729,43.1951646 52.817729,46.4183797 C52.817729,48.6017215 53.5025032,50.1281772 54.858671,50.976557 L54.858671,55.8988861 C54.8515871,57.2668101 54.842929,58.9706329 56.6422323,60.2129873 L57.4112258,60.7568608 C58.3447226,61.4302278 59.0208387,61.9152405 59.9842452,61.9152405 L61.1357677,61.9152405 C62.0968129,61.9152405 62.7705677,61.4325823 63.6993419,60.7615696 L64.4746323,60.2129873 C66.2770839,58.9706329 66.2684258,57.2707342 66.2589806,55.9035949 L66.2589806,50.976557 C67.6151484,50.1305316 68.2999226,48.6017215 68.2999226,46.4183797 C68.2999226,43.197519 69.7725806,40.6547342 71.1940774,38.1943544 C71.5341032,37.6065316 71.8583871,37.0281266 72.1661419,36.4552152 C70.5974581,37.7886076 69.0453032,38.9564051 67.6332516,39.9374177" id="Fill-19"></path>
                    <path d="M60.8280129,41.4254177 L60.3006581,41.1593671 C59.7111226,40.8611392 45.8054839,33.7421266 40.5705032,22.5460253 C40.0872258,21.608962 39.5764,20.0393418 39.5535742,19.9726329 C38.9349161,18.0561266 38.6224387,16.1129367 38.6224387,14.198 C38.6224387,6.56964557 44.5917806,0.362582278 51.9290968,0.362582278 C55.2175871,0.362582278 58.3974581,1.64339241 60.8280129,3.91306329 C63.2593548,1.64339241 66.4384387,0.362582278 69.7261419,0.362582278 C77.0650323,0.362582278 83.0343742,6.56964557 83.0343742,14.198 C83.0343742,16.0383797 82.7305548,17.9219241 82.1071742,19.9553671 C81.7954839,20.9693418 81.1303871,22.4479241 81.1020516,22.5099241 C75.8694323,33.7319241 61.9456903,40.8611392 61.3561548,41.1593671 L60.8280129,41.4254177 L60.8280129,41.4254177 Z M51.9290968,2.69189873 C45.879471,2.69189873 40.9585419,7.85359494 40.9585419,14.198 C40.9585419,15.8704304 41.2340258,17.5734684 41.7779097,19.2584557 C41.9093548,19.6657722 42.325729,20.8641772 42.6547355,21.4951646 L42.6775613,21.5414684 C47.0168258,30.846962 58.2565677,37.3954177 60.8280129,38.8002278 C63.3970968,37.3938481 74.6439226,30.8336203 78.9776774,21.5414684 C78.9784645,21.5414684 79.6049935,20.1468608 79.8733935,19.2749367 C80.4290839,17.4643797 80.698271,15.8037215 80.698271,14.198 C80.698271,7.85359494 75.7765548,2.69189873 69.7261419,2.69189873 C66.6966065,2.69189873 63.7709677,4.02686076 61.7024774,6.35382278 L60.8280129,7.33640506 L59.9535484,6.35382278 C57.884271,4.02686076 54.9602065,2.69189873 51.9290968,2.69189873 L51.9290968,2.69189873 Z" id="Fill-20"></path>
                </g>
            </g>
        </g>
    </g>
</svg>